<svg xmlns="http://www.w3.org/2000/svg" viewBox="0 0 792 612"><defs><style>.cls-1{font-size:64.88px;font-family:PlantagenetCherokee, Plantagenet Cherokee;letter-spacing:0.05em;}.cls-2{letter-spacing:0.05em;}.cls-3{letter-spacing:0.04em;}.cls-4{letter-spacing:0.01em;}</style></defs><g id="Layer_6" data-name="Layer 6"><path d="M392.39,265.55c-17.39,10.46-34,17.33-47,20.73a251.39,251.39,0,0,1-40,6.92c-.78-27.21-2-54.68-2-54.68l-2.27-10.22-.3-64.39,2.57-1.48,3.38-3.41v-2.74L302,154.6l-2.13-2.29H279.62l-1.83,2.29h-35.1l-2.92-2.29H223.32l-2.93,2.29H185.3l-1.83-2.29H163.25l-2.14,2.29-4.8,1.68V159l3.38,3.41,2.57,1.48L162,228.3l-2.26,10.22s-1.13,25.67-1.91,52a165.9,165.9,0,0,0-17.39,1.85c-33.63,5.55-70.92,24.36-70.92,24.36a163.57,163.57,0,0,0,322.92-51.13ZM274.19,432H188.9l-6.84-7.08a15,15,0,0,0,4.56-4.88c1.3-2.72.76-8.79.76-8.79l1.52-1.63-1.85-140.77.11-32.73s1-9.38,2.94-14.27A63.54,63.54,0,0,1,198,208.24a56,56,0,0,1,7.6-7.79s5.89,5,8,7.79c8.39,11,7.78,28.6,7.78,28.6l-1.29,32.66-.48,120s-.22,7.71,3.69,12.37a20.16,20.16,0,0,0,8.24,6.08,20.09,20.09,0,0,0,8.24-6.08c3.91-4.66,3.69-12.37,3.69-12.37l-.47-120h0l-1.3-32.63s-1.85-13.73,7.78-28.6c1.92-2.94,8-7.79,8-7.79a56,56,0,0,1,7.6,7.79A62.69,62.69,0,0,1,273,221.81c2,4.89,2.95,14.27,2.95,14.27l.1,32.73h0l-1.84,140.77,1.52,1.63s-.54,6.07.76,8.79a15,15,0,0,0,4.56,4.88Z"/><text class="cls-1" transform="translate(417.69 242.33)">TWO<tspan class="cls-2"><tspan x="0" y="77.85">BRI</tspan><tspan class="cls-3" x="117.68" y="77.85">D</tspan><tspan class="cls-4" x="167.77" y="77.85">G</tspan><tspan x="217.08" y="77.85">ES</tspan><tspan x="0" y="155.7">PRESS</tspan></tspan></text></g></svg>